<svg xmlns="http://www.w3.org/2000/svg" xmlns:xlink="http://www.w3.org/1999/xlink" width="666.902" height="132" viewBox="0 0 666.902 132">
  <defs>
    <clipPath id="clip-path">
      <rect id="Rectangle_29" data-name="Rectangle 29" width="105" height="132" transform="translate(629 480)" fill="#fff"/>
    </clipPath>
  </defs>
  <g id="Group_49" data-name="Group 49" transform="translate(-629 -480)">
    <path id="Path_75" data-name="Path 75" d="M24.232-40.352v-18.3H33.9c7.072,0,10.088,3.536,10.088,9.152S40.976-40.352,33.9-40.352ZM62.088-49.5c0-13.416-8.944-23.5-26.832-23.5H6.448V0H24.232V-26.208H35.256C53.872-26.208,62.088-37.44,62.088-49.5Zm27.04,22.568c0-9.984,4.888-12.9,13.312-12.9h4.888V-58.656c-7.8,0-14.144,4.16-18.2,10.3v-9.672H71.344V0H89.128Zm83.512-2.08c0-18.408-13.1-29.848-30.16-29.848-16.952,0-30.16,11.44-30.16,29.848S125.216.832,142.272.832,172.64-10.608,172.64-29.016Zm-42.224,0c0-9.88,5.616-14.456,12.064-14.456,6.24,0,12.064,4.576,12.064,14.456,0,9.776-5.928,14.456-12.272,14.456C135.824-14.56,130.416-19.24,130.416-29.016Zm46.176-29.016L197.184,0h21.944L239.72-58.032H220.792L208.208-16.64,195.624-58.032ZM247.208,0h17.784V-58.032H247.208Zm8.944-64.064c6.24,0,10.5-4.264,10.5-9.568,0-5.408-4.264-9.672-10.5-9.672-6.344,0-10.608,4.264-10.608,9.672C245.544-68.328,249.808-64.064,256.152-64.064Zm18.2,34.944c0,18.3,11.336,29.952,25.584,29.952,8.528,0,14.664-3.848,17.888-9.152V0h17.784V-76.96H317.824v26.936c-3.536-5.3-10.192-8.84-17.888-8.84C285.688-58.864,274.352-47.424,274.352-29.12Zm43.472.1c0,9.256-5.928,14.352-12.688,14.352-6.656,0-12.688-5.2-12.688-14.456s6.032-14.248,12.688-14.248C311.9-43.368,317.824-38.272,317.824-29.016Zm56.264-15.6c5.928,0,10.92,3.64,10.92,9.984H362.752C363.792-41.08,368.264-44.616,374.088-44.616ZM401.856-19.24H382.928c-1.456,3.12-4.264,5.616-9.256,5.616-5.72,0-10.4-3.536-11.024-11.128H402.9a44.939,44.939,0,0,0,.312-5.2c0-17.68-11.96-28.912-28.912-28.912-17.264,0-29.328,11.44-29.328,29.848S357.24.832,374.3.832C388.752.832,399.048-7.9,401.856-19.24Zm57.824,2.392c-.312-21.632-31.72-15.08-31.72-24.336,0-2.808,2.288-4.472,6.448-4.472,4.992,0,8.008,2.6,8.528,6.552h16.432c-1.144-11.44-9.464-19.76-24.44-19.76-15.184,0-23.608,8.112-23.608,17.992,0,21.32,31.616,14.56,31.616,23.92,0,2.6-2.392,4.68-6.968,4.68-4.888,0-8.528-2.7-8.944-6.76H409.448C410.28-7.8,420.68.832,436.176.832,450.736.832,459.68-6.76,459.68-16.848ZM470.6,0h17.784V-24.336L506.064,0h22.048L503.776-28.912,527.9-58.032H505.96L488.384-34.424V-76.96H470.6Z" transform="translate(767.79 582)" fill="#002952"/>
    <g id="Group_56" data-name="Group 56" transform="translate(-170 351)">
      <g id="Mask_Group_5" data-name="Mask Group 5" transform="translate(170 -351)" clip-path="url(#clip-path)">
        <g id="Group_51" data-name="Group 51" transform="translate(487.79 358)">
          <g id="Group_53" data-name="Group 53">
            <path id="Subtraction_2" data-name="Subtraction 2" d="M-644.209,125.177a8.009,8.009,0,0,1-8-8V2.065a6.9,6.9,0,0,1,6.887-6.887h40.613a30.308,30.308,0,0,1,11.872,2.4,30.4,30.4,0,0,1,9.695,6.536,30.4,30.4,0,0,1,6.536,9.695,30.308,30.308,0,0,1,2.4,11.872,30.622,30.622,0,0,1-.919,7.46,30.34,30.34,0,0,1-2.607,6.789A30.764,30.764,0,0,1-587.119,50.6,72.2,72.2,0,0,1-597.6,28.093l-.293.017-.283.017h-.043a.64.64,0,0,1-.637-.6.642.642,0,0,1,.6-.68l.222-.013h.007l.1-.006a73.191,73.191,0,0,1-2.18-19.669L-611.877,10.2a7.867,7.867,0,0,1-1.7,6.62,7.892,7.892,0,0,1-6.059,2.823,7.9,7.9,0,0,1-5.074-1.849,7.866,7.866,0,0,1-2.449-3.646l-9.683,2.5a110.752,110.752,0,0,0,3.128,19.471l.241-.115.275-.131a.636.636,0,0,1,.273-.061.645.645,0,0,1,.58.366.643.643,0,0,1-.088.684.647.647,0,0,1-.217.167c-.247.117-.494.235-.733.352a109.908,109.908,0,0,0,6.893,18.79h-9.72v61A8.009,8.009,0,0,1-644.209,125.177ZM-631,36.214a.645.645,0,0,1-.585-.379.632.632,0,0,1-.014-.487.639.639,0,0,1,.339-.358c.677-.3,1.318-.577,1.959-.846a.633.633,0,0,1,.247-.05.639.639,0,0,1,.589.393.635.635,0,0,1-.1.659.634.634,0,0,1-.242.178c-.665.279-1.316.56-1.934.835A.633.633,0,0,1-631,36.214Zm3.912-1.639a.64.64,0,0,1-.594-.406.634.634,0,0,1,.009-.489.636.636,0,0,1,.352-.34c.658-.258,1.329-.513,1.994-.759a.633.633,0,0,1,.221-.04.645.645,0,0,1,.6.419.646.646,0,0,1-.112.632.645.645,0,0,1-.268.189c-.6.221-1.247.466-1.968.748A.635.635,0,0,1-627.083,34.575Zm3.981-1.464a.639.639,0,0,1-.6-.433.631.631,0,0,1,.029-.487.637.637,0,0,1,.369-.325c.706-.241,1.369-.46,2.028-.67a.641.641,0,0,1,.2-.031.639.639,0,0,1,.608.445.648.648,0,0,1-.122.607.633.633,0,0,1-.294.2c-.634.2-1.288.417-2,.661A.64.64,0,0,1-623.1,33.111Zm4.038-1.285a.643.643,0,0,1-.612-.459.635.635,0,0,1,.052-.487.635.635,0,0,1,.381-.307c.234-.069.469-.136.705-.2l.142-.041c.358-.1.781-.22,1.207-.334a.63.63,0,0,1,.167-.023.64.64,0,0,1,.617.472.631.631,0,0,1-.126.576.634.634,0,0,1-.323.206c-.45.122-.829.227-1.191.33-.327.093-.593.17-.837.242A.636.636,0,0,1-619.065,31.827Zm4.1-1.108a.636.636,0,0,1-.62-.486.633.633,0,0,1,.073-.484.633.633,0,0,1,.394-.289c.708-.175,1.407-.339,2.077-.489a.654.654,0,0,1,.138-.015.645.645,0,0,1,.625.5.638.638,0,0,1-.134.551.64.64,0,0,1-.35.212c-.65.145-1.321.3-2.05.481A.647.647,0,0,1-614.968,30.719Zm4.14-.923a.645.645,0,0,1-.629-.514.633.633,0,0,1,.094-.479.636.636,0,0,1,.407-.274c.7-.14,1.4-.272,2.1-.4a.668.668,0,0,1,.112-.01.639.639,0,0,1,.629.528.638.638,0,0,1-.14.522.631.631,0,0,1-.378.219c-.67.118-1.366.249-2.069.391A.641.641,0,0,1-610.829,29.8Zm4.175-.741h0a.643.643,0,0,1-.632-.542.632.632,0,0,1,.115-.474.635.635,0,0,1,.418-.256c.724-.112,1.435-.213,2.113-.3a.684.684,0,0,1,.086-.005.642.642,0,0,1,.634.555.644.644,0,0,1-.145.5.633.633,0,0,1-.407.222c-.671.088-1.373.189-2.085.3A.647.647,0,0,1-606.654,29.055Zm4.2-.554h0a.638.638,0,0,1-.634-.57.634.634,0,0,1,.137-.469.636.636,0,0,1,.43-.235c.729-.08,1.444-.15,2.125-.21l.056,0a.643.643,0,0,1,.636.583.638.638,0,0,1-.148.468.637.637,0,0,1-.435.226c-.749.066-1.435.134-2.1.206A.646.646,0,0,1-602.45,28.5Z" transform="translate(794.21 128.822)" fill="#5dcade"/>
            <path id="Path_79" data-name="Path 79" d="M0,0H11.237s-5.089.435-7.9,3.244S0,11.237,0,11.237Z" transform="translate(157.763 184.763)" fill="#5dcade"/>
          </g>
          <path id="Path_80" data-name="Path 80" d="M11.116,11.116H0s5.035-.43,7.813-3.209S11.116,0,11.116,0Z" transform="translate(219 179)" fill="#5d9dde"/>
          <path id="Subtraction_3" data-name="Subtraction 3" d="M-593.79,123h-32a31.8,31.8,0,0,1-12.456-2.515,31.893,31.893,0,0,1-10.172-6.858,31.892,31.892,0,0,1-6.858-10.171A31.8,31.8,0,0,1-657.79,91a31.861,31.861,0,0,1,5.3-17.648,109.594,109.594,0,0,0,15.606,19.72A109.151,109.151,0,0,0-616.687,109l4.155-9.335a7.851,7.851,0,0,1-4.164-4.387,7.85,7.85,0,0,1,.159-6.046,7.914,7.914,0,0,1,7.223-4.69,7.845,7.845,0,0,1,3.211.686l4.65-10.444c-.413-.292-.822-.593-1.213-.891A72.686,72.686,0,0,1-617.573,59h16.782V1a8.009,8.009,0,0,1,8-8,8.009,8.009,0,0,1,8,8V114A9.01,9.01,0,0,1-593.79,123Z" transform="translate(830.79 131)" fill="#5d9dde"/>
        </g>
      </g>
    </g>
  </g>
</svg>
