<svg xmlns="http://www.w3.org/2000/svg" xmlns:xlink="http://www.w3.org/1999/xlink" width="672.58" height="145" viewBox="0 0 672.58 145">
  <defs>
    <clipPath id="clip-path">
      <rect id="Rectangle_5" data-name="Rectangle 5" width="59" height="51" transform="translate(173 189)" fill="#fff"/>
    </clipPath>
  </defs>
  <g id="Group_49" data-name="Group 49" transform="translate(-624.21 -473)">
    <g id="Group_16" data-name="Group 16" transform="translate(487.79 358)">
      <path id="Union_2" data-name="Union 2" d="M0,122V6.887A6.887,6.887,0,0,1,6.887,0H47.5a30.5,30.5,0,1,1,0,61H16v61a8,8,0,0,1-16,0Z" transform="translate(142 124)" fill="#5dcade"/>
      <path id="Path_1" data-name="Path 1" d="M0,0H11.237s-5.089.435-7.9,3.244S0,11.237,0,11.237Z" transform="translate(157.763 184.763)" fill="#5dcade"/>
      <path id="Path_2" data-name="Path 2" d="M11.116,11.116H0s5.035-.43,7.813-3.209S11.116,0,11.116,0Z" transform="translate(219 179)" fill="#5d9dde"/>
      <path id="Path_3" data-name="Path 3" d="M53.578,107.485a7.9,7.9,0,0,1-12.844-9.166L32.593,92.51a110.438,110.438,0,0,0-12.905,14.912c.173.079.346.155.521.236a.64.64,0,0,1-.267,1.221.651.651,0,0,1-.267-.058c-.249-.115-.495-.226-.741-.336A109.1,109.1,0,0,0,0,157.04H10.217a7.9,7.9,0,1,1,15.8,0H37.454q.148-.742.32-1.47a72.32,72.32,0,0,1,11.28-25.649c-.133-.139-.262-.278-.4-.419a.639.639,0,1,1,.923-.885c.078.081.15.158.226.239a73.166,73.166,0,0,1,13.665-14.312l-9.892-7.059Zm-29.257,2.906a.64.64,0,0,1-.862.275q-.956-.492-1.882-.944a.64.64,0,0,1,.561-1.15q.939.458,1.908.957A.64.64,0,0,1,24.321,110.391Zm3.711,2.051a.639.639,0,0,1-.872.238c-.619-.356-1.234-.7-1.839-1.027a.639.639,0,0,1,.611-1.122q.922.5,1.863,1.04a.641.641,0,0,1,.238.873Zm3.618,2.214a.639.639,0,0,1-.881.2q-.9-.572-1.792-1.108a.64.64,0,0,1,.661-1.095q.9.543,1.816,1.122a.641.641,0,0,1,.2.883Zm3.516,2.371a.641.641,0,0,1-.891.158c-.336-.235-.674-.467-1.019-.7q-.361-.245-.723-.485a.639.639,0,0,1,.708-1.064c.244.162.487.327.731.492q.522.354,1.032.71a.639.639,0,0,1,.158.889Zm3.407,2.524a.636.636,0,0,1-.508.251.645.645,0,0,1-.388-.131q-.825-.631-1.687-1.261a.639.639,0,0,1,.754-1.032q.873.638,1.709,1.278a.641.641,0,0,1,.12.9Zm3.293,2.673a.641.641,0,0,1-.9.079q-.793-.667-1.629-1.334a.64.64,0,0,1,.8-1q.847.677,1.651,1.354A.64.64,0,0,1,41.866,122.224Zm3.173,2.816a.64.64,0,0,1-.9.039q-.762-.7-1.569-1.405a.639.639,0,0,1,.843-.962q.817.716,1.59,1.425a.641.641,0,0,1,.04.9Zm3.045,2.953a.64.64,0,0,1-.906,0q-.728-.728-1.506-1.473a.639.639,0,0,1,.885-.923q.788.754,1.527,1.493a.64.64,0,0,1,0,.9Z" transform="translate(65.553 110.981) rotate(-50)" fill="#fff"/>
      <g id="Group_1" data-name="Group 1">
        <path id="Union_1" data-name="Union 1" d="M57,130H32a32,32,0,1,1,0-64H57V8A8,8,0,1,1,73,8V121a9,9,0,0,1-9,9Z" transform="translate(173 124)" fill="#5d9dde"/>
      </g>
      <g id="Mask_Group_1" data-name="Mask Group 1" clip-path="url(#clip-path)">
        <path id="Path_10" data-name="Path 10" d="M53.578,107.485a7.9,7.9,0,0,1-12.844-9.166L32.593,92.51a110.438,110.438,0,0,0-12.905,14.912c.173.079.346.155.521.236a.64.64,0,0,1-.267,1.221.651.651,0,0,1-.267-.058c-.249-.115-.495-.226-.741-.336A109.1,109.1,0,0,0,0,157.04H10.217a7.9,7.9,0,1,1,15.8,0H37.454q.148-.742.32-1.47a72.657,72.657,0,0,1,8.56-21.447c.754-1.27,1.711-2.755,2.719-4.2-.133-.139-.262-.278-.4-.419a.639.639,0,1,1,.923-.885c.078.081.15.158.226.239a73.166,73.166,0,0,1,13.665-14.312l-9.892-7.059Zm-29.257,2.906a.64.64,0,0,1-.862.275q-.956-.492-1.882-.944a.64.64,0,0,1,.561-1.15q.939.458,1.908.957A.64.64,0,0,1,24.321,110.391Zm3.711,2.051a.639.639,0,0,1-.872.238c-.619-.356-1.234-.7-1.839-1.027a.639.639,0,0,1,.611-1.122q.922.5,1.863,1.04a.641.641,0,0,1,.238.873Zm3.618,2.214a.639.639,0,0,1-.881.2q-.9-.572-1.792-1.108a.64.64,0,0,1,.661-1.095q.9.543,1.816,1.122a.641.641,0,0,1,.2.883Zm3.516,2.371a.641.641,0,0,1-.891.158c-.336-.235-.674-.467-1.019-.7q-.361-.245-.723-.485a.639.639,0,0,1,.708-1.064c.244.162.487.327.731.492q.522.354,1.032.71a.639.639,0,0,1,.158.889Zm3.407,2.524a.636.636,0,0,1-.508.251.645.645,0,0,1-.388-.131q-.825-.631-1.687-1.261a.639.639,0,0,1,.754-1.032q.873.638,1.709,1.278a.641.641,0,0,1,.12.9Zm3.293,2.673a.641.641,0,0,1-.9.079q-.793-.667-1.629-1.334a.64.64,0,0,1,.8-1q.847.677,1.651,1.354A.64.64,0,0,1,41.866,122.224Zm3.173,2.816a.64.64,0,0,1-.9.039q-.762-.7-1.569-1.405a.639.639,0,0,1,.843-.962q.817.716,1.59,1.425a.641.641,0,0,1,.04.9Zm3.045,2.953a.64.64,0,0,1-.906,0q-.728-.728-1.506-1.473a.639.639,0,0,1,.885-.923q.788.754,1.527,1.493a.64.64,0,0,1,0,.9Z" transform="matrix(0.407, -0.914, 0.914, 0.407, 70.64, 176.122)" fill="#fff"/>
      </g>
    </g>
    <text id="Providesk" transform="translate(767.79 582)" fill="#002952" font-size="104" font-family="Poppins-Bold, Poppins" font-weight="700"><tspan x="0" y="0">Providesk</tspan></text>
  </g>
</svg>
