<svg xmlns="http://www.w3.org/2000/svg" xmlns:xlink="http://www.w3.org/1999/xlink" width="671.692" height="132.178" viewBox="0 0 671.692 132.178">
  <defs>
    <clipPath id="clip-path">
      <rect id="Rectangle_5" data-name="Rectangle 5" width="59" height="51" transform="translate(173 189)" fill="#fff"/>
    </clipPath>
  </defs>
  <g id="Group_49" data-name="Group 49" transform="translate(-624.21 -479.822)">
    <g id="Group_16" data-name="Group 16" transform="translate(487.79 358)">
      <path id="Union_2" data-name="Union 2" d="M0,122V6.887A6.887,6.887,0,0,1,6.887,0H47.5a30.5,30.5,0,1,1,0,61H16v61a8,8,0,0,1-16,0Z" transform="translate(142 124)" fill="#5dcade"/>
      <path id="Path_1" data-name="Path 1" d="M0,0H11.237s-5.089.435-7.9,3.244S0,11.237,0,11.237Z" transform="translate(157.763 184.763)" fill="#5dcade"/>
      <path id="Path_2" data-name="Path 2" d="M11.116,11.116H0s5.035-.43,7.813-3.209S11.116,0,11.116,0Z" transform="translate(219 179)" fill="#5d9dde"/>
      <path id="Path_3" data-name="Path 3" d="M53.578,107.485a7.9,7.9,0,0,1-12.844-9.166L32.593,92.51a110.438,110.438,0,0,0-12.905,14.912c.173.079.346.155.521.236a.64.64,0,0,1-.267,1.221.651.651,0,0,1-.267-.058c-.249-.115-.495-.226-.741-.336A109.1,109.1,0,0,0,0,157.04H10.217a7.9,7.9,0,1,1,15.8,0H37.454q.148-.742.32-1.47a72.32,72.32,0,0,1,11.28-25.649c-.133-.139-.262-.278-.4-.419a.639.639,0,1,1,.923-.885c.078.081.15.158.226.239a73.166,73.166,0,0,1,13.665-14.312l-9.892-7.059Zm-29.257,2.906a.64.64,0,0,1-.862.275q-.956-.492-1.882-.944a.64.64,0,0,1,.561-1.15q.939.458,1.908.957A.64.64,0,0,1,24.321,110.391Zm3.711,2.051a.639.639,0,0,1-.872.238c-.619-.356-1.234-.7-1.839-1.027a.639.639,0,0,1,.611-1.122q.922.5,1.863,1.04a.641.641,0,0,1,.238.873Zm3.618,2.214a.639.639,0,0,1-.881.2q-.9-.572-1.792-1.108a.64.64,0,0,1,.661-1.095q.9.543,1.816,1.122a.641.641,0,0,1,.2.883Zm3.516,2.371a.641.641,0,0,1-.891.158c-.336-.235-.674-.467-1.019-.7q-.361-.245-.723-.485a.639.639,0,0,1,.708-1.064c.244.162.487.327.731.492q.522.354,1.032.71a.639.639,0,0,1,.158.889Zm3.407,2.524a.636.636,0,0,1-.508.251.645.645,0,0,1-.388-.131q-.825-.631-1.687-1.261a.639.639,0,0,1,.754-1.032q.873.638,1.709,1.278a.641.641,0,0,1,.12.9Zm3.293,2.673a.641.641,0,0,1-.9.079q-.793-.667-1.629-1.334a.64.64,0,0,1,.8-1q.847.677,1.651,1.354A.64.64,0,0,1,41.866,122.224Zm3.173,2.816a.64.64,0,0,1-.9.039q-.762-.7-1.569-1.405a.639.639,0,0,1,.843-.962q.817.716,1.59,1.425a.641.641,0,0,1,.04.9Zm3.045,2.953a.64.64,0,0,1-.906,0q-.728-.728-1.506-1.473a.639.639,0,0,1,.885-.923q.788.754,1.527,1.493a.64.64,0,0,1,0,.9Z" transform="translate(65.553 110.981) rotate(-50)" fill="#fff"/>
      <g id="Group_1" data-name="Group 1">
        <path id="Union_1" data-name="Union 1" d="M57,130H32a32,32,0,1,1,0-64H57V8A8,8,0,1,1,73,8V121a9,9,0,0,1-9,9Z" transform="translate(173 124)" fill="#5d9dde"/>
      </g>
      <g id="Mask_Group_1" data-name="Mask Group 1" clip-path="url(#clip-path)">
        <path id="Path_10" data-name="Path 10" d="M53.578,107.485a7.9,7.9,0,0,1-12.844-9.166L32.593,92.51a110.438,110.438,0,0,0-12.905,14.912c.173.079.346.155.521.236a.64.64,0,0,1-.267,1.221.651.651,0,0,1-.267-.058c-.249-.115-.495-.226-.741-.336A109.1,109.1,0,0,0,0,157.04H10.217a7.9,7.9,0,1,1,15.8,0H37.454q.148-.742.32-1.47a72.657,72.657,0,0,1,8.56-21.447c.754-1.27,1.711-2.755,2.719-4.2-.133-.139-.262-.278-.4-.419a.639.639,0,1,1,.923-.885c.078.081.15.158.226.239a73.166,73.166,0,0,1,13.665-14.312l-9.892-7.059Zm-29.257,2.906a.64.64,0,0,1-.862.275q-.956-.492-1.882-.944a.64.64,0,0,1,.561-1.15q.939.458,1.908.957A.64.64,0,0,1,24.321,110.391Zm3.711,2.051a.639.639,0,0,1-.872.238c-.619-.356-1.234-.7-1.839-1.027a.639.639,0,0,1,.611-1.122q.922.5,1.863,1.04a.641.641,0,0,1,.238.873Zm3.618,2.214a.639.639,0,0,1-.881.2q-.9-.572-1.792-1.108a.64.64,0,0,1,.661-1.095q.9.543,1.816,1.122a.641.641,0,0,1,.2.883Zm3.516,2.371a.641.641,0,0,1-.891.158c-.336-.235-.674-.467-1.019-.7q-.361-.245-.723-.485a.639.639,0,0,1,.708-1.064c.244.162.487.327.731.492q.522.354,1.032.71a.639.639,0,0,1,.158.889Zm3.407,2.524a.636.636,0,0,1-.508.251.645.645,0,0,1-.388-.131q-.825-.631-1.687-1.261a.639.639,0,0,1,.754-1.032q.873.638,1.709,1.278a.641.641,0,0,1,.12.9Zm3.293,2.673a.641.641,0,0,1-.9.079q-.793-.667-1.629-1.334a.64.64,0,0,1,.8-1q.847.677,1.651,1.354A.64.64,0,0,1,41.866,122.224Zm3.173,2.816a.64.64,0,0,1-.9.039q-.762-.7-1.569-1.405a.639.639,0,0,1,.843-.962q.817.716,1.59,1.425a.641.641,0,0,1,.04.9Zm3.045,2.953a.64.64,0,0,1-.906,0q-.728-.728-1.506-1.473a.639.639,0,0,1,.885-.923q.788.754,1.527,1.493a.64.64,0,0,1,0,.9Z" transform="matrix(0.407, -0.914, 0.914, 0.407, 70.64, 176.122)" fill="#fff"/>
      </g>
    </g>
    <path id="Path_75" data-name="Path 75" d="M24.232-40.352v-18.3H33.9c7.072,0,10.088,3.536,10.088,9.152S40.976-40.352,33.9-40.352ZM62.088-49.5c0-13.416-8.944-23.5-26.832-23.5H6.448V0H24.232V-26.208H35.256C53.872-26.208,62.088-37.44,62.088-49.5Zm27.04,22.568c0-9.984,4.888-12.9,13.312-12.9h4.888V-58.656c-7.8,0-14.144,4.16-18.2,10.3v-9.672H71.344V0H89.128Zm83.512-2.08c0-18.408-13.1-29.848-30.16-29.848-16.952,0-30.16,11.44-30.16,29.848S125.216.832,142.272.832,172.64-10.608,172.64-29.016Zm-42.224,0c0-9.88,5.616-14.456,12.064-14.456,6.24,0,12.064,4.576,12.064,14.456,0,9.776-5.928,14.456-12.272,14.456C135.824-14.56,130.416-19.24,130.416-29.016Zm46.176-29.016L197.184,0h21.944L239.72-58.032H220.792L208.208-16.64,195.624-58.032ZM247.208,0h17.784V-58.032H247.208Zm8.944-64.064c6.24,0,10.5-4.264,10.5-9.568,0-5.408-4.264-9.672-10.5-9.672-6.344,0-10.608,4.264-10.608,9.672C245.544-68.328,249.808-64.064,256.152-64.064Zm18.2,34.944c0,18.3,11.336,29.952,25.584,29.952,8.528,0,14.664-3.848,17.888-9.152V0h17.784V-76.96H317.824v26.936c-3.536-5.3-10.192-8.84-17.888-8.84C285.688-58.864,274.352-47.424,274.352-29.12Zm43.472.1c0,9.256-5.928,14.352-12.688,14.352-6.656,0-12.688-5.2-12.688-14.456s6.032-14.248,12.688-14.248C311.9-43.368,317.824-38.272,317.824-29.016Zm56.264-15.6c5.928,0,10.92,3.64,10.92,9.984H362.752C363.792-41.08,368.264-44.616,374.088-44.616ZM401.856-19.24H382.928c-1.456,3.12-4.264,5.616-9.256,5.616-5.72,0-10.4-3.536-11.024-11.128H402.9a44.939,44.939,0,0,0,.312-5.2c0-17.68-11.96-28.912-28.912-28.912-17.264,0-29.328,11.44-29.328,29.848S357.24.832,374.3.832C388.752.832,399.048-7.9,401.856-19.24Zm57.824,2.392c-.312-21.632-31.72-15.08-31.72-24.336,0-2.808,2.288-4.472,6.448-4.472,4.992,0,8.008,2.6,8.528,6.552h16.432c-1.144-11.44-9.464-19.76-24.44-19.76-15.184,0-23.608,8.112-23.608,17.992,0,21.32,31.616,14.56,31.616,23.92,0,2.6-2.392,4.68-6.968,4.68-4.888,0-8.528-2.7-8.944-6.76H409.448C410.28-7.8,420.68.832,436.176.832,450.736.832,459.68-6.76,459.68-16.848ZM470.6,0h17.784V-24.336L506.064,0h22.048L503.776-28.912,527.9-58.032H505.96L488.384-34.424V-76.96H470.6Z" transform="translate(767.79 582)" fill="#002952"/>
  </g>
</svg>
